<?xml version="1.0" ?><!-- Uploaded to: SVG Repo, www.svgrepo.com, Generator: SVG Repo Mixer Tools -->
<svg width="800px" height="800px" viewBox="0 0 64 64" data-name="Layer 1" id="Layer_1" xmlns="http://www.w3.org/2000/svg"><defs><style>
      .cls-1 {
        fill: #f76c5e;
      }

      .cls-2 {
        fill: #fd8266;
      }

      .cls-3 {
        fill: #fd5933;
      }

      .cls-4 {
        fill: #feac99;
      }

      .cls-5 {
        fill: #606c38;
      }
    </style></defs><path class="cls-5" d="M35.28,53.61c-1.05,.26-2.15,.39-3.28,.39s-2.23-.13-3.28-.39c.17,2.14,.28,4.88,.28,8.39h6c0-3.51,.11-6.25,.28-8.39Z"/><path class="cls-1" d="M33.86,23.61c.68-1.67,1.88-3.46,3.98-4.98,.37-.27,.7-.58,1-.92,3.55,8.63,7.16,18.37,7.16,22.29,0,7.57-6.02,13.74-13.53,13.99,4.21-.25,7.53-3.73,7.53-7.99,0-3.04-3.78-15.13-6.14-22.39Z"/><path class="cls-1" d="M30.14,23.61c-.68-1.67-1.88-3.46-3.98-4.98-.37-.27-.7-.58-1-.92-3.55,8.63-7.16,18.37-7.16,22.29,0,7.57,6.02,13.74,13.53,13.99-4.21-.25-7.53-3.73-7.53-7.99,0-3.04,3.78-15.13,6.14-22.39Z"/><path class="cls-3" d="M33.86,23.61c.68-1.67,1.88-3.46,3.98-4.98,.37-.27,.7-.58,1-.92-3.45-8.37-6.84-15.71-6.84-15.71,0,0-3.39,7.34-6.84,15.71,.3,.34,.63,.65,1,.92,2.1,1.52,3.3,3.31,3.98,4.98,1.08-3.31,1.86-5.61,1.86-5.61,0,0,.78,2.3,1.86,5.61Z"/><path class="cls-2" d="M40,46c0,4.42-3.58,8-8,8s-8-3.58-8-8,8-28,8-28c0,0,8,23.58,8,28Z"/><path class="cls-4" d="M35.07,57.61c1.52,1.1,3.48,1.62,5.51,1.29,4.12-.67,7.01-4.57,6.46-8.71s2.35-8.04,6.47-8.72c3.99-.65,7.67,1.96,8.39,5.89-1.26-8.04-8.68-13.44-16.75-12.17,.54,1.99,.85,3.65,.85,4.81,0,6.6-4.57,12.13-10.72,13.61-.09,1.15-.17,2.48-.21,4Z"/><path class="cls-4" d="M28.93,57.61c-1.52,1.1-3.48,1.62-5.51,1.29-4.12-.67-7.01-4.57-6.46-8.71s-2.35-8.04-6.47-8.72c-3.99-.65-7.67,1.96-8.39,5.89,1.26-8.04,8.68-13.44,16.75-12.17-.54,1.99-.85,3.65-.85,4.81,0,6.6,4.57,12.13,10.72,13.61,.09,1.15,.17,2.48,.21,4Z"/></svg>